<svg width="15" height="18" viewBox="0 0 15 18" fill="none" xmlns="http://www.w3.org/2000/svg">
<path d="M2.15397 6.38965C2.29175 7.37154 2.80884 9.05146 4.71618 9.77522C6.67 10.5181 6.67 11.1032 6.67 11.49V11.6253C5.4748 11.9855 4.595 13.0836 4.595 14.395C4.595 15.9969 5.8981 17.3 7.5 17.3C9.1019 17.3 10.405 15.9969 10.405 14.395C10.405 13.0836 9.5252 11.9855 8.33 11.6253L8.33 11.49C8.33 11.1032 8.33 10.5181 10.2838 9.77605C12.1912 9.05229 12.7082 7.37237 12.846 6.39048C14.067 6.04603 14.97 4.93466 14.97 3.605C14.97 2.0031 13.6669 0.699997 12.065 0.699997C10.4631 0.699997 9.16 2.0031 9.16 3.605C9.16 4.89316 10.0083 5.97465 11.1719 6.35479C11.0507 6.96484 10.703 7.84132 9.69618 8.22395C8.70682 8.59911 7.99219 9.01494 7.5 9.49883C7.00781 9.01494 6.29401 8.59911 5.30382 8.22395C4.29703 7.84132 3.94843 6.96484 3.82808 6.35479C4.99174 5.97465 5.84 4.89316 5.84 3.605C5.84 2.0031 4.5369 0.699997 2.935 0.699997C1.3331 0.699997 0.0299988 2.0031 0.0299988 3.605C0.0299988 4.93466 0.933039 6.04603 2.15397 6.38965ZM12.065 2.36C12.7514 2.36 13.31 2.91859 13.31 3.605C13.31 4.29141 12.7514 4.85 12.065 4.85C11.3786 4.85 10.82 4.29141 10.82 3.605C10.82 2.91859 11.3786 2.36 12.065 2.36ZM8.745 14.395C8.745 15.0814 8.18641 15.64 7.5 15.64C6.81359 15.64 6.255 15.0814 6.255 14.395C6.255 13.7086 6.81359 13.15 7.5 13.15C8.18641 13.15 8.745 13.7086 8.745 14.395ZM2.935 2.36C3.62141 2.36 4.18 2.91859 4.18 3.605C4.18 4.29141 3.62141 4.85 2.935 4.85C2.24859 4.85 1.69 4.29141 1.69 3.605C1.69 2.91859 2.24859 2.36 2.935 2.36Z" fill="#9095A1"/>
</svg>
