<svg width="23" height="22" viewBox="0 0 23 22" fill="none" xmlns="http://www.w3.org/2000/svg">
<path d="M11.5 14C13.1569 14 14.5 12.6569 14.5 11C14.5 9.34315 13.1569 8 11.5 8C9.84315 8 8.5 9.34315 8.5 11C8.5 12.6569 9.84315 14 11.5 14Z" stroke="black" stroke-width="2.4" stroke-miterlimit="10" stroke-linecap="square"/>
<path d="M19.5 11C19.4988 10.4239 19.4358 9.84963 19.312 9.287L22.026 7.232L20.026 3.768L16.883 5.094C16.0319 4.3137 15.0217 3.72723 13.922 3.375L13.5 0L9.5 0L9.078 3.375C7.97834 3.72723 6.96814 4.3137 6.117 5.094L2.974 3.768L0.973999 7.232L3.688 9.287C3.43739 10.4153 3.43739 11.5847 3.688 12.713L0.973999 14.768L2.974 18.232L6.117 16.906C6.96814 17.6863 7.97834 18.2728 9.078 18.625L9.5 22H13.5L13.922 18.625C15.0217 18.2728 16.0319 17.6863 16.883 16.906L20.026 18.232L22.026 14.768L19.312 12.713C19.4358 12.1504 19.4988 11.5761 19.5 11Z" stroke="black" stroke-width="2.4" stroke-miterlimit="10" stroke-linecap="round"/>
</svg>
