<svg width="16" height="3" viewBox="0 0 16 3" fill="none" xmlns="http://www.w3.org/2000/svg">
<path d="M14.4396 0.167175L1.24036 0.167175C0.719656 0.167175 0.297546 0.589285 0.297546 1.10998V1.10999C0.297546 1.63069 0.719656 2.0528 1.24036 2.0528L14.4396 2.0528C14.9603 2.0528 15.3824 1.63069 15.3824 1.10998C15.3824 0.589285 14.9603 0.167175 14.4396 0.167175Z" fill="#BDC1CA"/>
<path d="M12.2284 0.167175L6.57159 0.167175C6.05089 0.167175 5.62878 0.589285 5.62878 1.10998V1.10999C5.62878 1.63069 6.05089 2.0528 6.57159 2.0528L12.2284 2.0528C12.7491 2.0528 13.1713 1.63069 13.1713 1.10998C13.1713 0.589285 12.7491 0.167175 12.2284 0.167175Z" fill="#BDC1CA"/>
</svg>
