<svg width="15" height="16" viewBox="0 0 15 16" fill="none" xmlns="http://www.w3.org/2000/svg">
<path d="M13.39 9.47419V5.1192C13.39 5.06334 13.3694 4.97638 13.3108 4.87384C13.2563 4.77832 13.1868 4.70339 13.1328 4.65988L8.96498 2.07999C8.89402 2.04113 8.81436 2.02045 8.73336 2.02045C8.64987 2.02047 8.5678 2.04204 8.49517 2.08326L1.60021 6.09999C1.57186 6.1165 1.54235 6.13099 1.51188 6.14317C1.4962 6.14945 1.44601 6.17961 1.39739 6.2544C1.35018 6.32702 1.32999 6.40336 1.32999 6.4592L1.32999 10.8809C1.32999 10.8809 1.33084 10.9045 1.3457 10.9523C1.36023 10.9989 1.3838 11.0547 1.4157 11.1132C1.47786 11.2271 1.54666 11.3046 1.58582 11.3389L5.74977 13.9169C5.82208 13.9577 5.90358 13.9797 5.98662 13.9797C6.0492 13.9797 6.11091 13.9672 6.16853 13.9437L6.22481 13.9162L13.1146 9.90279C13.1632 9.8727 13.2408 9.79914 13.3076 9.68618C13.3391 9.63284 13.3611 9.58119 13.3749 9.53831C13.3878 9.49837 13.3898 9.47693 13.39 9.47419ZM14.73 9.47419C14.7299 9.79954 14.608 10.1186 14.4611 10.3673C14.3112 10.621 14.0881 10.8818 13.8016 11.0536L13.7943 11.0583L6.89347 15.0783L6.8869 15.0816C6.61247 15.2375 6.30226 15.3197 5.98662 15.3197C5.7103 15.3197 5.43798 15.2568 5.19034 15.1365L5.08566 15.0816L5.06406 15.0684L0.843195 12.4558C0.826264 12.4454 0.81005 12.4338 0.794124 12.4218C0.561681 12.2475 0.370671 11.9953 0.239277 11.7544C0.110383 11.5181 -0.0100098 11.2035 -0.0100098 10.8809L-0.0100098 6.4592C-0.0100098 5.82728 0.377284 5.19034 0.949846 4.92749L7.82651 0.921885L7.83308 0.918615L7.93773 0.863649C8.1853 0.743484 8.45718 0.680471 8.73336 0.68045C9.00973 0.68045 9.28195 0.743363 9.52965 0.863649L9.63431 0.918615L9.65595 0.931044L13.8768 3.54431L13.9259 3.57833L13.9992 3.63591C14.366 3.94336 14.73 4.49544 14.73 5.1192V9.47419Z" fill="#565D6D"/>
<path d="M5.36674 14.6179L5.36674 9.69752L0.390157 6.61123L0.33389 6.57263C0.0647648 6.36541 -0.00863907 5.98352 0.174243 5.68867C0.357126 5.39401 0.731475 5.29051 1.0366 5.43939L1.0968 5.47275L6.38944 8.75536C6.58642 8.87757 6.70675 9.09344 6.70675 9.32526L6.70675 14.6179C6.70675 14.9878 6.40666 15.2877 6.03675 15.2879C5.66671 15.2879 5.36674 14.9879 5.36674 14.6179Z" fill="#565D6D"/>
<path d="M13.7013 4.10738C14.0106 3.96761 14.3817 4.08229 14.5558 4.38219C14.7414 4.7023 14.6325 5.11259 14.3124 5.2982L6.33982 9.92078L6.27831 9.9522C5.96883 10.0919 5.59776 9.97746 5.42377 9.67744C5.23834 9.35738 5.3473 8.94767 5.66717 8.76208L13.6404 4.13879L13.7013 4.10738Z" fill="#565D6D"/>
<path d="M8.01999 13.2132L8.01999 7.78649C8.01999 7.41644 8.31995 7.11649 8.68999 7.11649C9.06003 7.11649 9.35999 7.41644 9.35999 7.78649L9.35999 13.2132C9.35999 13.5833 9.06003 13.8832 8.68999 13.8832C8.31995 13.8832 8.01999 13.5833 8.01999 13.2132Z" fill="#565D6D"/>
<path d="M10.69 11.6832L10.69 6.25649C10.69 5.88646 10.99 5.58649 11.36 5.58649C11.73 5.58649 12.03 5.88646 12.03 6.25649L12.03 11.6832C12.03 12.0532 11.73 12.3532 11.36 12.3532C10.99 12.3532 10.69 12.0532 10.69 11.6832Z" fill="#565D6D"/>
</svg>
