<svg width="15" height="18" viewBox="0 0 15 18" fill="none" xmlns="http://www.w3.org/2000/svg">
<path d="M2.154 6.38965C2.29178 7.37154 2.80887 9.05146 4.71621 9.77522C6.67003 10.5181 6.67003 11.1032 6.67003 11.49V11.6253C5.47483 11.9855 4.59503 13.0836 4.59503 14.395C4.59503 15.9969 5.89813 17.3 7.50003 17.3C9.10193 17.3 10.405 15.9969 10.405 14.395C10.405 13.0836 9.52523 11.9855 8.33003 11.6253L8.33003 11.49C8.33003 11.1032 8.33003 10.5181 10.2838 9.77605C12.1912 9.05229 12.7083 7.37237 12.8461 6.39048C14.067 6.04603 14.97 4.93466 14.97 3.605C14.97 2.0031 13.6669 0.699997 12.065 0.699997C10.4631 0.699997 9.16003 2.0031 9.16003 3.605C9.16003 4.89316 10.0083 5.97465 11.1719 6.35479C11.0508 6.96484 10.703 7.84132 9.69621 8.22395C8.70685 8.59911 7.99222 9.01494 7.50003 9.49883C7.00784 9.01494 6.29404 8.59911 5.30385 8.22395C4.29706 7.84132 3.94846 6.96484 3.82811 6.35479C4.99177 5.97465 5.84003 4.89316 5.84003 3.605C5.84003 2.0031 4.53693 0.699997 2.93503 0.699997C1.33313 0.699997 0.0300293 2.0031 0.0300293 3.605C0.0300293 4.93466 0.933069 6.04603 2.154 6.38965ZM12.065 2.36C12.7514 2.36 13.31 2.91859 13.31 3.605C13.31 4.29141 12.7514 4.85 12.065 4.85C11.3786 4.85 10.82 4.29141 10.82 3.605C10.82 2.91859 11.3786 2.36 12.065 2.36ZM8.74503 14.395C8.74503 15.0814 8.18644 15.64 7.50003 15.64C6.81362 15.64 6.25503 15.0814 6.25503 14.395C6.25503 13.7086 6.81362 13.15 7.50003 13.15C8.18644 13.15 8.74503 13.7086 8.74503 14.395ZM2.93503 2.36C3.62144 2.36 4.18003 2.91859 4.18003 3.605C4.18003 4.29141 3.62144 4.85 2.93503 4.85C2.24862 4.85 1.69003 4.29141 1.69003 3.605C1.69003 2.91859 2.24862 2.36 2.93503 2.36Z" fill="#9095A1"/>
</svg>
