<svg width="25" height="26" viewBox="0 0 25 26" fill="none" xmlns="http://www.w3.org/2000/svg">
<path d="M6.80388 23.5984C9.57298 25.0055 13.0001 24.0027 14.5603 21.2704C14.9997 20.5012 15.257 19.6454 15.3216 18.7693C13.4265 19.6938 11.1702 19.6302 9.32854 18.5721C6.26289 16.8109 5.19775 12.8777 6.95366 9.80274C7.48887 8.86548 8.25258 8.08062 9.16352 7.52199C9.18303 6.45124 9.47159 5.39344 10.0068 4.45618C11.1161 2.51364 13.0922 1.37355 15.1692 1.24071C10.1564 0.105788 4.77217 2.30478 2.08708 7.00683C-1.20706 12.7754 0.790865 20.1529 6.5398 23.4557C6.62804 23.5064 6.7166 23.5513 6.80614 23.5997L6.80388 23.5984Z" fill="#636AE8"/>
<path d="M10.4387 4.71599C9.99942 5.48532 9.74211 6.34107 9.67749 7.21716C11.5726 6.29265 13.8266 6.35497 15.6682 7.41301C18.7339 9.17429 19.8 13.111 18.0441 16.186C17.5102 17.121 16.7465 17.9058 15.8356 18.4644C15.8161 19.5352 15.5275 20.593 14.9923 21.5303C13.8817 23.475 11.9056 24.6152 9.82853 24.748C14.8423 25.8865 20.2279 23.6852 22.9129 18.9832C26.2058 13.2168 24.2069 5.83582 18.458 2.53299C18.3697 2.48231 18.2812 2.43746 18.1916 2.38904C15.4225 0.981958 11.9977 1.98601 10.4387 4.71599Z" fill="#E8618C"/>
</svg>
