<svg width="17" height="16" viewBox="0 0 17 16" fill="none" xmlns="http://www.w3.org/2000/svg">
<path d="M8.5 0.189999L8.5 15.81" stroke="#9095A1" stroke-width="1.704" stroke-miterlimit="10"/>
<path d="M0.690002 8L16.31 8" stroke="#9095A1" stroke-width="1.704" stroke-miterlimit="10"/>
<path d="M8.50003 15.81C10.6567 15.81 12.405 12.3133 12.405 8C12.405 3.68665 10.6567 0.189999 8.50003 0.189999C6.34336 0.189999 4.59503 3.68665 4.59503 8C4.59503 12.3133 6.34336 15.81 8.50003 15.81Z" stroke="#9095A1" stroke-width="1.704" stroke-miterlimit="10" stroke-linecap="square"/>
<path d="M8.5 15.81C12.8133 15.81 16.31 12.3133 16.31 8C16.31 3.68665 12.8133 0.189999 8.5 0.189999C4.18666 0.189999 0.690002 3.68665 0.690002 8C0.690002 12.3133 4.18666 15.81 8.5 15.81Z" stroke="#9095A1" stroke-width="1.704" stroke-miterlimit="10" stroke-linecap="square"/>
</svg>
